<svg width="122" height="32" viewBox="0 0 122 32" fill="none" xmlns="http://www.w3.org/2000/svg">
<path d="M-1.43051e-06 22.4V0H19.872V3.936H3.904V9.248H15.968V13.184H3.904V22.4H-1.43051e-06ZM25.8237 18.496H27.7757V22.4H25.8237C23.1357 22.4 20.9597 20.224 20.9597 17.536V0.0319996H24.8637C24.8637 9.504 24.8637 12.448 24.8637 17.536C24.8637 18.08 25.2797 18.496 25.8237 18.496ZM37.0177 18.496C38.8097 18.496 40.4417 17.472 41.2097 15.84H45.3377C44.3457 20.064 40.3457 22.848 36.0257 22.368C31.7377 21.856 28.5057 18.208 28.5057 13.888C28.5057 9.568 31.7377 5.92 36.0257 5.408C40.3457 4.896 44.3457 7.712 45.3377 11.936L35.4497 18.24C35.9617 18.4 36.4737 18.496 37.0177 18.496ZM32.4097 13.888C32.4097 14.4 32.4737 14.88 32.6337 15.36L40.1217 10.464C38.7777 9.216 36.8257 8.928 35.1617 9.664C33.4657 10.4 32.4097 12.064 32.4097 13.888ZM63.4897 5.344L56.6417 13.888L63.4897 22.4H58.4657L54.1457 16.992L49.8257 22.4H44.8337L51.6497 13.888L44.8337 5.344H49.8257L54.1457 10.752L58.4657 5.344H63.4897ZM77.4137 3.936H68.9977V11.232H77.4137C79.4297 11.232 81.0617 9.568 81.0617 7.584C81.0617 5.568 79.4297 3.936 77.4137 3.936ZM65.0937 22.4V0H77.4137C80.1337 0 82.6617 1.44 84.0057 3.776C85.3818 6.112 85.3818 9.024 84.0057 11.36C82.6617 13.696 80.1337 15.136 77.4137 15.136H68.9977V22.4H65.0937ZM94.136 5.344C98.584 5.344 102.296 8.768 102.648 13.216C103 17.664 99.864 21.632 95.448 22.304C91.032 23.008 86.84 20.192 85.848 15.84L95.704 9.536C95.192 9.344 94.68 9.248 94.136 9.248C92.344 9.28 90.712 10.304 89.944 11.936H85.848C86.744 8.096 90.168 5.376 94.136 5.344ZM94.136 18.496C96.696 18.496 98.744 16.448 98.744 13.888C98.744 13.376 98.68 12.896 98.52 12.416L91.032 17.312C91.896 18.08 92.984 18.496 94.136 18.496ZM104.297 27.136C104.297 24.544 106.377 22.432 108.969 22.432H116.649C119.241 22.432 121.353 24.544 121.353 27.136C121.353 29.728 119.241 31.808 116.649 31.808H108.969C106.377 31.808 104.297 29.728 104.297 27.136ZM116.649 26.336H108.969C108.553 26.336 108.201 26.688 108.201 27.136C108.201 27.552 108.553 27.904 108.969 27.904H116.649C117.097 27.904 117.449 27.552 117.449 27.136C117.449 26.688 117.097 26.336 116.649 26.336ZM121.353 13.888C121.353 16.96 119.753 19.808 117.097 21.344C114.441 22.88 111.177 22.88 108.521 21.344C105.865 19.808 104.265 16.96 104.297 13.888V5.376H108.201V13.888C108.169 15.552 109.065 17.12 110.473 17.952C111.913 18.784 113.705 18.784 115.145 17.952C116.585 17.12 117.449 15.552 117.449 13.888V5.376H121.353V13.888Z" fill="#EBEBEB"/>
</svg>
