<svg width="122" height="32" viewBox="0 0 122 32" fill="none" xmlns="http://www.w3.org/2000/svg">
<path d="M-6.24657e-05 22.3999V-9.91821e-05H19.8719V3.9359H3.90394V9.2479H15.9679V13.1839H3.90394V22.3999H-6.24657e-05ZM25.8237 18.4959H27.7757V22.3999H25.8237C23.1357 22.3999 20.9597 20.2239 20.9597 17.5359V0.0319004H24.8637C24.8637 9.5039 24.8637 12.4479 24.8637 17.5359C24.8637 18.0799 25.2797 18.4959 25.8237 18.4959ZM37.0177 18.4959C38.8097 18.4959 40.4417 17.4719 41.2097 15.8399H45.3377C44.3457 20.0639 40.3457 22.8479 36.0257 22.3679C31.7377 21.8559 28.5057 18.2079 28.5057 13.8879C28.5057 9.5679 31.7377 5.9199 36.0257 5.4079C40.3457 4.8959 44.3457 7.7119 45.3377 11.9359L35.4497 18.2399C35.9617 18.3999 36.4737 18.4959 37.0177 18.4959ZM32.4097 13.8879C32.4097 14.3999 32.4737 14.8799 32.6337 15.3599L40.1217 10.4639C38.7777 9.2159 36.8257 8.9279 35.1617 9.6639C33.4657 10.3999 32.4097 12.0639 32.4097 13.8879ZM63.4897 5.3439L56.6417 13.8879L63.4897 22.3999H58.4657L54.1457 16.9919L49.8257 22.3999H44.8337L51.6497 13.8879L44.8337 5.3439H49.8257L54.1457 10.7519L58.4657 5.3439H63.4897ZM77.4137 3.9359H68.9977V11.2319H77.4137C79.4297 11.2319 81.0617 9.5679 81.0617 7.5839C81.0617 5.5679 79.4297 3.9359 77.4137 3.9359ZM65.0937 22.3999V-9.91821e-05H77.4137C80.1337 -9.91821e-05 82.6617 1.4399 84.0057 3.7759C85.3817 6.1119 85.3817 9.0239 84.0057 11.3599C82.6617 13.6959 80.1337 15.1359 77.4137 15.1359H68.9977V22.3999H65.0937ZM94.1359 5.3439C98.5839 5.3439 102.296 8.7679 102.648 13.2159C103 17.6639 99.8639 21.6319 95.4479 22.3039C91.0319 23.0079 86.8399 20.1919 85.8479 15.8399L95.7039 9.5359C95.1919 9.3439 94.6799 9.2479 94.1359 9.2479C92.3439 9.2799 90.7119 10.3039 89.9439 11.9359H85.8479C86.7439 8.0959 90.1679 5.3759 94.1359 5.3439ZM94.1359 18.4959C96.6959 18.4959 98.7439 16.4479 98.7439 13.8879C98.7439 13.3759 98.6799 12.8959 98.5199 12.4159L91.0319 17.3119C91.8959 18.0799 92.9839 18.4959 94.1359 18.4959ZM104.297 27.1359C104.297 24.5439 106.377 22.4319 108.969 22.4319H116.649C119.241 22.4319 121.353 24.5439 121.353 27.1359C121.353 29.7279 119.241 31.8079 116.649 31.8079H108.969C106.377 31.8079 104.297 29.7279 104.297 27.1359ZM116.649 26.3359H108.969C108.553 26.3359 108.201 26.6879 108.201 27.1359C108.201 27.5519 108.553 27.9039 108.969 27.9039H116.649C117.097 27.9039 117.449 27.5519 117.449 27.1359C117.449 26.6879 117.097 26.3359 116.649 26.3359ZM121.353 13.8879C121.353 16.9599 119.753 19.8079 117.097 21.3439C114.441 22.8799 111.177 22.8799 108.521 21.3439C105.865 19.8079 104.265 16.9599 104.297 13.8879V5.3759H108.201V13.8879C108.169 15.5519 109.065 17.1199 110.473 17.9519C111.913 18.7839 113.705 18.7839 115.145 17.9519C116.585 17.1199 117.449 15.5519 117.449 13.8879V5.3759H121.353V13.8879Z" fill="url(#paint0_linear_1_450)"/>
<defs>
<linearGradient id="paint0_linear_1_450" x1="79.3359" y1="-1.6001" x2="79.3359" y2="29.3999" gradientUnits="userSpaceOnUse">
<stop stop-color="#10367D"/>
<stop offset="0.539708" stop-color="#174CB0"/>
<stop offset="0.639194" stop-color="#1A57CA"/>
<stop offset="0.688909" stop-color="#1D62E3"/>
<stop offset="0.819196" stop-color="#174CB0"/>
<stop offset="0.891196" stop-color="#1D62E3"/>
<stop offset="0.982054" stop-color="#1A57C9"/>
</linearGradient>
</defs>
</svg>
