<svg width="121" height="120" viewBox="0 0 121 120" fill="none" xmlns="http://www.w3.org/2000/svg">
<path fill-rule="evenodd" clip-rule="evenodd" d="M45.9312 9.6C46.9759 5.90639 50.3719 3.2 54.4 3.2H86.8557C84.1501 4.83028 81.8172 7.01629 80.015 9.6H45.9312ZM78.1556 12.8H31.2C25.8981 12.8 21.6 17.0981 21.6 22.4V81.6H71.2H72C72.8836 81.6 73.6 82.3163 73.6 83.2V91.6C73.6 98.4483 79.1517 104 86 104C92.8483 104 98.4 98.4483 98.4 91.6V44.8C86.0288 44.8 76 34.7712 76 22.4C76 18.9645 76.7734 15.7096 78.1556 12.8ZM101.6 44.5732V89.4673C106.14 88.7055 109.6 84.7568 109.6 80V41.8033C107.183 43.2017 104.48 44.1613 101.6 44.5732ZM112.8 39.5588V80C112.8 86.5407 107.894 91.9355 101.561 92.7057C100.994 100.805 94.2439 107.2 86 107.2C85.8604 107.2 85.7212 107.198 85.5825 107.195L85.6 107.2H28C19.1634 107.2 12 100.037 12 91.2V88C12 84.4654 14.8654 81.6 18.4 81.6V22.4C18.4 15.3308 24.1308 9.6 31.2 9.6H42.64C43.7519 4.12262 48.5945 0 54.4 0H96.8V0.0562625C97.3285 0.0189649 97.862 0 98.4 0C110.771 0 120.8 10.0288 120.8 22.4C120.8 29.2879 117.691 35.4497 112.8 39.5588ZM3.2 97.2C3.2 96.5372 3.73726 96 4.4 96C5.06274 96 5.6 96.5372 5.6 97.2V97.6C5.6 106.437 12.7634 113.6 21.6 113.6H25.28C25.8986 113.6 26.4 114.101 26.4 114.72C26.4 115.339 25.8986 115.84 25.28 115.84H21.6C10.9791 115.84 3.2 108.187 3.2 97.6V97.2ZM4.4 92.8C1.96995 92.8 0 94.7699 0 97.2V97.6C0 109.988 9.24589 119.04 21.6 119.04H25.28C27.6659 119.04 29.6 117.106 29.6 114.72C29.6 112.334 27.6659 110.4 25.28 110.4H21.6C14.5308 110.4 8.8 104.669 8.8 97.6V97.2C8.8 94.7699 6.83005 92.8 4.4 92.8ZM29.6 55.2C29.6 52.9909 31.3909 51.2 33.6 51.2H57.6C59.8091 51.2 61.6 52.9909 61.6 55.2C61.6 57.4091 59.8091 59.2 57.6 59.2H33.6C31.3909 59.2 29.6 57.4091 29.6 55.2ZM33.6 54.4C33.1582 54.4 32.8 54.7582 32.8 55.2C32.8 55.6418 33.1582 56 33.6 56H57.6C58.0418 56 58.4 55.6418 58.4 55.2C58.4 54.7582 58.0418 54.4 57.6 54.4H33.6ZM43.1266 45.0516C43.2484 45.1734 43.4406 45.2344 43.7031 45.2344C43.9281 45.2344 44.0922 45.1734 44.1953 45.0516C44.3078 44.9297 44.3641 44.7375 44.3641 44.475V43.3359C45.2359 43.2422 46.0281 42.9937 46.7406 42.5906C47.4531 42.1781 48.025 41.5781 48.4562 40.7906C48.8969 39.9937 49.1172 39.0094 49.1172 37.8375C49.1172 36.825 48.8875 35.9906 48.4281 35.3344C47.9687 34.6687 47.4344 34.1578 46.825 33.8016C46.2156 33.4453 45.3953 33.0422 44.3641 32.5922V28.7953C44.8328 28.8141 45.2266 28.8656 45.5453 28.95C45.8734 29.0344 46.2062 29.1422 46.5437 29.2734C46.7781 29.3672 46.9328 29.4141 47.0078 29.4141C47.1953 29.4141 47.3922 29.2828 47.5984 29.0203C47.8141 28.7578 47.9969 28.4531 48.1469 28.1062C48.2969 27.75 48.3719 27.4594 48.3719 27.2344C48.3719 26.9812 48.1984 26.7281 47.8516 26.475C47.5141 26.2219 47.0359 26.0062 46.4172 25.8281C45.8078 25.65 45.1234 25.5469 44.3641 25.5187V24.7453C44.3641 24.4734 44.3078 24.2812 44.1953 24.1687C44.0828 24.0562 43.8906 24 43.6187 24C43.3937 24 43.225 24.0609 43.1125 24.1828C43 24.2953 42.9437 24.4828 42.9437 24.7453V25.5328C42.0344 25.6359 41.2 25.8844 40.4406 26.2781C39.6906 26.6719 39.0859 27.2344 38.6266 27.9656C38.1766 28.6875 37.9516 29.5734 37.9516 30.6234C37.9516 31.7297 38.1906 32.6297 38.6687 33.3234C39.1562 34.0078 39.7234 34.5281 40.3703 34.8844C41.0266 35.2312 41.8844 35.6016 42.9437 35.9953V40.1156C42.3625 40.1156 41.8281 40.0359 41.3406 39.8766C40.8625 39.7172 40.3703 39.5109 39.8641 39.2578C39.5078 39.0703 39.2734 38.9766 39.1609 38.9766C38.9922 38.9766 38.7812 39.1078 38.5281 39.3703C38.275 39.6234 38.0547 39.9281 37.8672 40.2844C37.6891 40.6406 37.6 40.9406 37.6 41.1844C37.6 41.475 37.8109 41.7844 38.2328 42.1125C38.6641 42.4406 39.2828 42.7266 40.0891 42.9703C40.9047 43.2047 41.8562 43.3406 42.9437 43.3781V44.475C42.9437 44.7375 43.0047 44.9297 43.1266 45.0516ZM41.9312 29.4984C42.1187 29.2453 42.4562 29.0578 42.9437 28.9359V31.9453C42.5219 31.7016 42.1984 31.4484 41.9734 31.1859C41.7578 30.9234 41.65 30.6141 41.65 30.2578C41.65 29.9953 41.7437 29.7422 41.9312 29.4984ZM45.1516 39.2578C44.9547 39.5109 44.6922 39.7031 44.3641 39.8344V36.6703C45.0859 37.0828 45.4469 37.6266 45.4469 38.3016C45.4469 38.6859 45.3484 39.0047 45.1516 39.2578ZM29.6 68C29.6 65.7909 31.3909 64 33.6 64H81.6C83.8091 64 85.6 65.7909 85.6 68C85.6 70.2091 83.8091 72 81.6 72H33.6C31.3909 72 29.6 70.2091 29.6 68ZM33.6 67.2C33.1582 67.2 32.8 67.5582 32.8 68C32.8 68.4418 33.1582 68.8 33.6 68.8H81.6C82.0418 68.8 82.4 68.4418 82.4 68C82.4 67.5582 82.0418 67.2 81.6 67.2H33.6ZM79.2 22.4C79.2 11.7961 87.7961 3.2 98.4 3.2C109.004 3.2 117.6 11.7961 117.6 22.4C117.6 33.0039 109.004 41.6 98.4 41.6C87.7961 41.6 79.2 33.0039 79.2 22.4ZM94.4 12C94.4 9.79086 96.1908 8 98.4 8C100.609 8 102.4 9.79086 102.4 12V21.6C102.4 23.8091 100.609 25.6 98.4 25.6C96.1908 25.6 94.4 23.8091 94.4 21.6V12ZM98.4 11.2C97.9582 11.2 97.6 11.5582 97.6 12V21.6C97.6 22.0418 97.9582 22.4 98.4 22.4C98.8418 22.4 99.2 22.0418 99.2 21.6V12C99.2 11.5582 98.8418 11.2 98.4 11.2ZM98.4 36.8C96.1908 36.8 94.4 35.0091 94.4 32.8C94.4 30.5909 96.1908 28.8 98.4 28.8C100.609 28.8 102.4 30.5909 102.4 32.8C102.4 35.0091 100.609 36.8 98.4 36.8ZM97.6 32.8C97.6 33.2418 97.9582 33.6 98.4 33.6C98.8418 33.6 99.2 33.2418 99.2 32.8C99.2 32.3582 98.8418 32 98.4 32C97.9582 32 97.6 32.3582 97.6 32.8Z" fill="#B7B6B6"/>
</svg>
